<mxfile host="app.diagrams.net" agent="Mozilla/5.0 (Windows NT 10.0; Win64; x64) AppleWebKit/537.36 (KHTML, like Gecko) Chrome/132.0.0.0 Safari/537.36" version="26.0.16">
  <diagram name="PÃ¡gina-1" id="rRsPwCNzVp_qZIwgrR6R">
    <mxGraphModel dx="607" dy="1463" grid="1" gridSize="10" guides="1" tooltips="1" connect="1" arrows="1" fold="1" page="1" pageScale="1" pageWidth="827" pageHeight="1169" math="0" shadow="0">
      <root>
        <mxCell id="0" />
        <mxCell id="1" parent="0" />
        <mxCell id="F-JVeoXvT4hnvLZcxk8T-1" value="User" style="swimlane;fontStyle=0;childLayout=stackLayout;horizontal=1;startSize=30;horizontalStack=0;resizeParent=1;resizeParentMax=0;resizeLast=0;collapsible=1;marginBottom=0;whiteSpace=wrap;html=1;" vertex="1" parent="1">
          <mxGeometry x="100" y="50" width="140" height="240" as="geometry" />
        </mxCell>
        <mxCell id="F-JVeoXvT4hnvLZcxk8T-2" value="id" style="text;strokeColor=none;fillColor=none;align=left;verticalAlign=middle;spacingLeft=4;spacingRight=4;overflow=hidden;points=[[0,0.5],[1,0.5]];portConstraint=eastwest;rotatable=0;whiteSpace=wrap;html=1;" vertex="1" parent="F-JVeoXvT4hnvLZcxk8T-1">
          <mxGeometry y="30" width="140" height="30" as="geometry" />
        </mxCell>
        <mxCell id="F-JVeoXvT4hnvLZcxk8T-3" value="name" style="text;strokeColor=none;fillColor=none;align=left;verticalAlign=middle;spacingLeft=4;spacingRight=4;overflow=hidden;points=[[0,0.5],[1,0.5]];portConstraint=eastwest;rotatable=0;whiteSpace=wrap;html=1;" vertex="1" parent="F-JVeoXvT4hnvLZcxk8T-1">
          <mxGeometry y="60" width="140" height="30" as="geometry" />
        </mxCell>
        <mxCell id="F-JVeoXvT4hnvLZcxk8T-4" value="email" style="text;strokeColor=none;fillColor=none;align=left;verticalAlign=middle;spacingLeft=4;spacingRight=4;overflow=hidden;points=[[0,0.5],[1,0.5]];portConstraint=eastwest;rotatable=0;whiteSpace=wrap;html=1;" vertex="1" parent="F-JVeoXvT4hnvLZcxk8T-1">
          <mxGeometry y="90" width="140" height="30" as="geometry" />
        </mxCell>
        <mxCell id="F-JVeoXvT4hnvLZcxk8T-5" value="password" style="text;strokeColor=none;fillColor=none;align=left;verticalAlign=middle;spacingLeft=4;spacingRight=4;overflow=hidden;points=[[0,0.5],[1,0.5]];portConstraint=eastwest;rotatable=0;whiteSpace=wrap;html=1;" vertex="1" parent="F-JVeoXvT4hnvLZcxk8T-1">
          <mxGeometry y="120" width="140" height="30" as="geometry" />
        </mxCell>
        <mxCell id="F-JVeoXvT4hnvLZcxk8T-6" value="&lt;div style=&quot;font-family: Poppins, &amp;quot;JetBrains Mono&amp;quot;, Consolas, &amp;quot;Courier New&amp;quot;, monospace; font-size: 13px; line-height: 22px; white-space: pre;&quot;&gt;&lt;span&gt;&lt;font style=&quot;color: light-dark(rgb(222, 212, 126), rgb(255, 255, 255));&quot;&gt;createdAt&lt;/font&gt;&lt;/span&gt;&lt;/div&gt;" style="text;strokeColor=none;fillColor=none;align=left;verticalAlign=middle;spacingLeft=4;spacingRight=4;overflow=hidden;points=[[0,0.5],[1,0.5]];portConstraint=eastwest;rotatable=0;whiteSpace=wrap;html=1;" vertex="1" parent="F-JVeoXvT4hnvLZcxk8T-1">
          <mxGeometry y="150" width="140" height="30" as="geometry" />
        </mxCell>
        <mxCell id="F-JVeoXvT4hnvLZcxk8T-7" value="&lt;div style=&quot;font-family: Poppins, &amp;quot;JetBrains Mono&amp;quot;, Consolas, &amp;quot;Courier New&amp;quot;, monospace; font-size: 13px; line-height: 22px; white-space: pre;&quot;&gt;&lt;span&gt;&lt;font style=&quot;color: light-dark(rgb(222, 212, 126), rgb(255, 255, 255));&quot;&gt;updatedAt&lt;/font&gt;&lt;/span&gt;&lt;/div&gt;" style="text;strokeColor=none;fillColor=none;align=left;verticalAlign=middle;spacingLeft=4;spacingRight=4;overflow=hidden;points=[[0,0.5],[1,0.5]];portConstraint=eastwest;rotatable=0;whiteSpace=wrap;html=1;" vertex="1" parent="F-JVeoXvT4hnvLZcxk8T-1">
          <mxGeometry y="180" width="140" height="30" as="geometry" />
        </mxCell>
        <mxCell id="F-JVeoXvT4hnvLZcxk8T-18" value="&lt;div style=&quot;font-family: Poppins, &amp;quot;JetBrains Mono&amp;quot;, Consolas, &amp;quot;Courier New&amp;quot;, monospace; font-size: 13px; line-height: 22px; white-space: pre;&quot;&gt;&lt;span&gt;&lt;font style=&quot;color: light-dark(rgb(222, 212, 126), rgb(255, 255, 255));&quot;&gt;empresaId&lt;/font&gt;&lt;/span&gt;&lt;/div&gt;" style="text;strokeColor=none;fillColor=none;align=left;verticalAlign=middle;spacingLeft=4;spacingRight=4;overflow=hidden;points=[[0,0.5],[1,0.5]];portConstraint=eastwest;rotatable=0;whiteSpace=wrap;html=1;" vertex="1" parent="F-JVeoXvT4hnvLZcxk8T-1">
          <mxGeometry y="210" width="140" height="30" as="geometry" />
        </mxCell>
        <mxCell id="F-JVeoXvT4hnvLZcxk8T-9" value="Empresa" style="swimlane;fontStyle=0;childLayout=stackLayout;horizontal=1;startSize=30;horizontalStack=0;resizeParent=1;resizeParentMax=0;resizeLast=0;collapsible=1;marginBottom=0;whiteSpace=wrap;html=1;" vertex="1" parent="1">
          <mxGeometry x="320" y="170" width="140" height="300" as="geometry" />
        </mxCell>
        <mxCell id="F-JVeoXvT4hnvLZcxk8T-10" value="id" style="text;strokeColor=none;fillColor=none;align=left;verticalAlign=middle;spacingLeft=4;spacingRight=4;overflow=hidden;points=[[0,0.5],[1,0.5]];portConstraint=eastwest;rotatable=0;whiteSpace=wrap;html=1;" vertex="1" parent="F-JVeoXvT4hnvLZcxk8T-9">
          <mxGeometry y="30" width="140" height="30" as="geometry" />
        </mxCell>
        <mxCell id="F-JVeoXvT4hnvLZcxk8T-11" value="name" style="text;strokeColor=none;fillColor=none;align=left;verticalAlign=middle;spacingLeft=4;spacingRight=4;overflow=hidden;points=[[0,0.5],[1,0.5]];portConstraint=eastwest;rotatable=0;whiteSpace=wrap;html=1;" vertex="1" parent="F-JVeoXvT4hnvLZcxk8T-9">
          <mxGeometry y="60" width="140" height="30" as="geometry" />
        </mxCell>
        <mxCell id="F-JVeoXvT4hnvLZcxk8T-12" value="cnpj" style="text;strokeColor=none;fillColor=none;align=left;verticalAlign=middle;spacingLeft=4;spacingRight=4;overflow=hidden;points=[[0,0.5],[1,0.5]];portConstraint=eastwest;rotatable=0;whiteSpace=wrap;html=1;" vertex="1" parent="F-JVeoXvT4hnvLZcxk8T-9">
          <mxGeometry y="90" width="140" height="30" as="geometry" />
        </mxCell>
        <mxCell id="F-JVeoXvT4hnvLZcxk8T-13" value="telefone" style="text;strokeColor=none;fillColor=none;align=left;verticalAlign=middle;spacingLeft=4;spacingRight=4;overflow=hidden;points=[[0,0.5],[1,0.5]];portConstraint=eastwest;rotatable=0;whiteSpace=wrap;html=1;" vertex="1" parent="F-JVeoXvT4hnvLZcxk8T-9">
          <mxGeometry y="120" width="140" height="30" as="geometry" />
        </mxCell>
        <mxCell id="F-JVeoXvT4hnvLZcxk8T-15" value="emailContato" style="text;strokeColor=none;fillColor=none;align=left;verticalAlign=middle;spacingLeft=4;spacingRight=4;overflow=hidden;points=[[0,0.5],[1,0.5]];portConstraint=eastwest;rotatable=0;whiteSpace=wrap;html=1;" vertex="1" parent="F-JVeoXvT4hnvLZcxk8T-9">
          <mxGeometry y="150" width="140" height="30" as="geometry" />
        </mxCell>
        <mxCell id="F-JVeoXvT4hnvLZcxk8T-73" value="image_Url" style="text;strokeColor=none;fillColor=none;align=left;verticalAlign=middle;spacingLeft=4;spacingRight=4;overflow=hidden;points=[[0,0.5],[1,0.5]];portConstraint=eastwest;rotatable=0;whiteSpace=wrap;html=1;" vertex="1" parent="F-JVeoXvT4hnvLZcxk8T-9">
          <mxGeometry y="180" width="140" height="30" as="geometry" />
        </mxCell>
        <mxCell id="F-JVeoXvT4hnvLZcxk8T-14" value="certificadoPath" style="text;strokeColor=none;fillColor=none;align=left;verticalAlign=middle;spacingLeft=4;spacingRight=4;overflow=hidden;points=[[0,0.5],[1,0.5]];portConstraint=eastwest;rotatable=0;whiteSpace=wrap;html=1;" vertex="1" parent="F-JVeoXvT4hnvLZcxk8T-9">
          <mxGeometry y="210" width="140" height="30" as="geometry" />
        </mxCell>
        <mxCell id="F-JVeoXvT4hnvLZcxk8T-16" value="&lt;span style=&quot;font-family: Poppins, &amp;quot;JetBrains Mono&amp;quot;, Consolas, &amp;quot;Courier New&amp;quot;, monospace; font-size: 13px; white-space: pre;&quot;&gt;createdAt&lt;/span&gt;" style="text;strokeColor=none;fillColor=none;align=left;verticalAlign=middle;spacingLeft=4;spacingRight=4;overflow=hidden;points=[[0,0.5],[1,0.5]];portConstraint=eastwest;rotatable=0;whiteSpace=wrap;html=1;" vertex="1" parent="F-JVeoXvT4hnvLZcxk8T-9">
          <mxGeometry y="240" width="140" height="30" as="geometry" />
        </mxCell>
        <mxCell id="F-JVeoXvT4hnvLZcxk8T-17" value="&lt;span style=&quot;font-family: Poppins, &amp;quot;JetBrains Mono&amp;quot;, Consolas, &amp;quot;Courier New&amp;quot;, monospace; font-size: 13px; white-space: pre;&quot;&gt;updatedAt&lt;/span&gt;" style="text;strokeColor=none;fillColor=none;align=left;verticalAlign=middle;spacingLeft=4;spacingRight=4;overflow=hidden;points=[[0,0.5],[1,0.5]];portConstraint=eastwest;rotatable=0;whiteSpace=wrap;html=1;" vertex="1" parent="F-JVeoXvT4hnvLZcxk8T-9">
          <mxGeometry y="270" width="140" height="30" as="geometry" />
        </mxCell>
        <mxCell id="F-JVeoXvT4hnvLZcxk8T-21" style="edgeStyle=orthogonalEdgeStyle;rounded=0;orthogonalLoop=1;jettySize=auto;html=1;exitX=1;exitY=0.5;exitDx=0;exitDy=0;entryX=0;entryY=0.5;entryDx=0;entryDy=0;" edge="1" parent="1" source="F-JVeoXvT4hnvLZcxk8T-18" target="F-JVeoXvT4hnvLZcxk8T-10">
          <mxGeometry relative="1" as="geometry" />
        </mxCell>
        <mxCell id="F-JVeoXvT4hnvLZcxk8T-22" value="Vendas" style="swimlane;fontStyle=0;childLayout=stackLayout;horizontal=1;startSize=30;horizontalStack=0;resizeParent=1;resizeParentMax=0;resizeLast=0;collapsible=1;marginBottom=0;whiteSpace=wrap;html=1;" vertex="1" parent="1">
          <mxGeometry x="514" y="90" width="140" height="270" as="geometry" />
        </mxCell>
        <mxCell id="F-JVeoXvT4hnvLZcxk8T-23" value="id" style="text;strokeColor=none;fillColor=none;align=left;verticalAlign=middle;spacingLeft=4;spacingRight=4;overflow=hidden;points=[[0,0.5],[1,0.5]];portConstraint=eastwest;rotatable=0;whiteSpace=wrap;html=1;" vertex="1" parent="F-JVeoXvT4hnvLZcxk8T-22">
          <mxGeometry y="30" width="140" height="30" as="geometry" />
        </mxCell>
        <mxCell id="F-JVeoXvT4hnvLZcxk8T-24" value="data" style="text;strokeColor=none;fillColor=none;align=left;verticalAlign=middle;spacingLeft=4;spacingRight=4;overflow=hidden;points=[[0,0.5],[1,0.5]];portConstraint=eastwest;rotatable=0;whiteSpace=wrap;html=1;" vertex="1" parent="F-JVeoXvT4hnvLZcxk8T-22">
          <mxGeometry y="60" width="140" height="30" as="geometry" />
        </mxCell>
        <mxCell id="F-JVeoXvT4hnvLZcxk8T-25" value="valor" style="text;strokeColor=none;fillColor=none;align=left;verticalAlign=middle;spacingLeft=4;spacingRight=4;overflow=hidden;points=[[0,0.5],[1,0.5]];portConstraint=eastwest;rotatable=0;whiteSpace=wrap;html=1;" vertex="1" parent="F-JVeoXvT4hnvLZcxk8T-22">
          <mxGeometry y="90" width="140" height="30" as="geometry" />
        </mxCell>
        <mxCell id="F-JVeoXvT4hnvLZcxk8T-26" value="&lt;span style=&quot;font-family: Poppins, &amp;quot;JetBrains Mono&amp;quot;, Consolas, &amp;quot;Courier New&amp;quot;, monospace; font-size: 13px; white-space: pre;&quot;&gt;createdAt&lt;/span&gt;" style="text;strokeColor=none;fillColor=none;align=left;verticalAlign=middle;spacingLeft=4;spacingRight=4;overflow=hidden;points=[[0,0.5],[1,0.5]];portConstraint=eastwest;rotatable=0;whiteSpace=wrap;html=1;" vertex="1" parent="F-JVeoXvT4hnvLZcxk8T-22">
          <mxGeometry y="120" width="140" height="30" as="geometry" />
        </mxCell>
        <mxCell id="F-JVeoXvT4hnvLZcxk8T-27" value="&lt;span style=&quot;font-family: Poppins, &amp;quot;JetBrains Mono&amp;quot;, Consolas, &amp;quot;Courier New&amp;quot;, monospace; font-size: 13px; white-space: pre;&quot;&gt;updatedAt&lt;/span&gt;" style="text;strokeColor=none;fillColor=none;align=left;verticalAlign=middle;spacingLeft=4;spacingRight=4;overflow=hidden;points=[[0,0.5],[1,0.5]];portConstraint=eastwest;rotatable=0;whiteSpace=wrap;html=1;" vertex="1" parent="F-JVeoXvT4hnvLZcxk8T-22">
          <mxGeometry y="150" width="140" height="30" as="geometry" />
        </mxCell>
        <mxCell id="F-JVeoXvT4hnvLZcxk8T-29" value="&lt;span style=&quot;font-family: Poppins, &amp;quot;JetBrains Mono&amp;quot;, Consolas, &amp;quot;Courier New&amp;quot;, monospace; font-size: 13px; white-space: pre;&quot;&gt;empresaId&lt;/span&gt;" style="text;strokeColor=none;fillColor=none;align=left;verticalAlign=middle;spacingLeft=4;spacingRight=4;overflow=hidden;points=[[0,0.5],[1,0.5]];portConstraint=eastwest;rotatable=0;whiteSpace=wrap;html=1;" vertex="1" parent="F-JVeoXvT4hnvLZcxk8T-22">
          <mxGeometry y="180" width="140" height="30" as="geometry" />
        </mxCell>
        <mxCell id="F-JVeoXvT4hnvLZcxk8T-30" value="clienteId" style="text;strokeColor=none;fillColor=none;align=left;verticalAlign=middle;spacingLeft=4;spacingRight=4;overflow=hidden;points=[[0,0.5],[1,0.5]];portConstraint=eastwest;rotatable=0;whiteSpace=wrap;html=1;" vertex="1" parent="F-JVeoXvT4hnvLZcxk8T-22">
          <mxGeometry y="210" width="140" height="30" as="geometry" />
        </mxCell>
        <mxCell id="F-JVeoXvT4hnvLZcxk8T-31" value="produtoId" style="text;strokeColor=none;fillColor=none;align=left;verticalAlign=middle;spacingLeft=4;spacingRight=4;overflow=hidden;points=[[0,0.5],[1,0.5]];portConstraint=eastwest;rotatable=0;whiteSpace=wrap;html=1;" vertex="1" parent="F-JVeoXvT4hnvLZcxk8T-22">
          <mxGeometry y="240" width="140" height="30" as="geometry" />
        </mxCell>
        <mxCell id="F-JVeoXvT4hnvLZcxk8T-35" value="" style="edgeStyle=orthogonalEdgeStyle;rounded=0;orthogonalLoop=1;jettySize=auto;html=1;entryX=0;entryY=0.5;entryDx=0;entryDy=0;" edge="1" parent="1" source="F-JVeoXvT4hnvLZcxk8T-10" target="F-JVeoXvT4hnvLZcxk8T-29">
          <mxGeometry relative="1" as="geometry" />
        </mxCell>
        <mxCell id="F-JVeoXvT4hnvLZcxk8T-37" value="Clientes" style="swimlane;fontStyle=0;childLayout=stackLayout;horizontal=1;startSize=30;horizontalStack=0;resizeParent=1;resizeParentMax=0;resizeLast=0;collapsible=1;marginBottom=0;whiteSpace=wrap;html=1;" vertex="1" parent="1">
          <mxGeometry x="320" y="-170" width="140" height="270" as="geometry" />
        </mxCell>
        <mxCell id="F-JVeoXvT4hnvLZcxk8T-38" value="id" style="text;strokeColor=none;fillColor=none;align=left;verticalAlign=middle;spacingLeft=4;spacingRight=4;overflow=hidden;points=[[0,0.5],[1,0.5]];portConstraint=eastwest;rotatable=0;whiteSpace=wrap;html=1;" vertex="1" parent="F-JVeoXvT4hnvLZcxk8T-37">
          <mxGeometry y="30" width="140" height="30" as="geometry" />
        </mxCell>
        <mxCell id="F-JVeoXvT4hnvLZcxk8T-39" value="nome" style="text;strokeColor=none;fillColor=none;align=left;verticalAlign=middle;spacingLeft=4;spacingRight=4;overflow=hidden;points=[[0,0.5],[1,0.5]];portConstraint=eastwest;rotatable=0;whiteSpace=wrap;html=1;" vertex="1" parent="F-JVeoXvT4hnvLZcxk8T-37">
          <mxGeometry y="60" width="140" height="30" as="geometry" />
        </mxCell>
        <mxCell id="F-JVeoXvT4hnvLZcxk8T-40" value="cpfCnpj" style="text;strokeColor=none;fillColor=none;align=left;verticalAlign=middle;spacingLeft=4;spacingRight=4;overflow=hidden;points=[[0,0.5],[1,0.5]];portConstraint=eastwest;rotatable=0;whiteSpace=wrap;html=1;" vertex="1" parent="F-JVeoXvT4hnvLZcxk8T-37">
          <mxGeometry y="90" width="140" height="30" as="geometry" />
        </mxCell>
        <mxCell id="F-JVeoXvT4hnvLZcxk8T-41" value="telefone" style="text;strokeColor=none;fillColor=none;align=left;verticalAlign=middle;spacingLeft=4;spacingRight=4;overflow=hidden;points=[[0,0.5],[1,0.5]];portConstraint=eastwest;rotatable=0;whiteSpace=wrap;html=1;" vertex="1" parent="F-JVeoXvT4hnvLZcxk8T-37">
          <mxGeometry y="120" width="140" height="30" as="geometry" />
        </mxCell>
        <mxCell id="F-JVeoXvT4hnvLZcxk8T-42" value="email" style="text;strokeColor=none;fillColor=none;align=left;verticalAlign=middle;spacingLeft=4;spacingRight=4;overflow=hidden;points=[[0,0.5],[1,0.5]];portConstraint=eastwest;rotatable=0;whiteSpace=wrap;html=1;" vertex="1" parent="F-JVeoXvT4hnvLZcxk8T-37">
          <mxGeometry y="150" width="140" height="30" as="geometry" />
        </mxCell>
        <mxCell id="F-JVeoXvT4hnvLZcxk8T-43" value="&lt;span style=&quot;font-family: Poppins, &amp;quot;JetBrains Mono&amp;quot;, Consolas, &amp;quot;Courier New&amp;quot;, monospace; font-size: 13px; white-space: pre;&quot;&gt;createdAt&lt;/span&gt;" style="text;strokeColor=none;fillColor=none;align=left;verticalAlign=middle;spacingLeft=4;spacingRight=4;overflow=hidden;points=[[0,0.5],[1,0.5]];portConstraint=eastwest;rotatable=0;whiteSpace=wrap;html=1;" vertex="1" parent="F-JVeoXvT4hnvLZcxk8T-37">
          <mxGeometry y="180" width="140" height="30" as="geometry" />
        </mxCell>
        <mxCell id="F-JVeoXvT4hnvLZcxk8T-44" value="&lt;span style=&quot;font-family: Poppins, &amp;quot;JetBrains Mono&amp;quot;, Consolas, &amp;quot;Courier New&amp;quot;, monospace; font-size: 13px; white-space: pre;&quot;&gt;updatedAt&lt;/span&gt;" style="text;strokeColor=none;fillColor=none;align=left;verticalAlign=middle;spacingLeft=4;spacingRight=4;overflow=hidden;points=[[0,0.5],[1,0.5]];portConstraint=eastwest;rotatable=0;whiteSpace=wrap;html=1;" vertex="1" parent="F-JVeoXvT4hnvLZcxk8T-37">
          <mxGeometry y="210" width="140" height="30" as="geometry" />
        </mxCell>
        <mxCell id="F-JVeoXvT4hnvLZcxk8T-45" value="&lt;span style=&quot;font-family: Poppins, &amp;quot;JetBrains Mono&amp;quot;, Consolas, &amp;quot;Courier New&amp;quot;, monospace; font-size: 13px; white-space: pre;&quot;&gt;empresaId&lt;/span&gt;" style="text;strokeColor=none;fillColor=none;align=left;verticalAlign=middle;spacingLeft=4;spacingRight=4;overflow=hidden;points=[[0,0.5],[1,0.5]];portConstraint=eastwest;rotatable=0;whiteSpace=wrap;html=1;" vertex="1" parent="F-JVeoXvT4hnvLZcxk8T-37">
          <mxGeometry y="240" width="140" height="30" as="geometry" />
        </mxCell>
        <mxCell id="F-JVeoXvT4hnvLZcxk8T-46" value="" style="edgeStyle=orthogonalEdgeStyle;rounded=0;orthogonalLoop=1;jettySize=auto;html=1;entryX=0;entryY=0.5;entryDx=0;entryDy=0;" edge="1" parent="1" source="F-JVeoXvT4hnvLZcxk8T-45" target="F-JVeoXvT4hnvLZcxk8T-10">
          <mxGeometry relative="1" as="geometry" />
        </mxCell>
        <mxCell id="F-JVeoXvT4hnvLZcxk8T-47" value="Produtos" style="swimlane;fontStyle=0;childLayout=stackLayout;horizontal=1;startSize=30;horizontalStack=0;resizeParent=1;resizeParentMax=0;resizeLast=0;collapsible=1;marginBottom=0;whiteSpace=wrap;html=1;" vertex="1" parent="1">
          <mxGeometry x="690" y="350" width="140" height="270" as="geometry" />
        </mxCell>
        <mxCell id="F-JVeoXvT4hnvLZcxk8T-48" value="id" style="text;strokeColor=none;fillColor=none;align=left;verticalAlign=middle;spacingLeft=4;spacingRight=4;overflow=hidden;points=[[0,0.5],[1,0.5]];portConstraint=eastwest;rotatable=0;whiteSpace=wrap;html=1;" vertex="1" parent="F-JVeoXvT4hnvLZcxk8T-47">
          <mxGeometry y="30" width="140" height="30" as="geometry" />
        </mxCell>
        <mxCell id="F-JVeoXvT4hnvLZcxk8T-49" value="nome" style="text;strokeColor=none;fillColor=none;align=left;verticalAlign=middle;spacingLeft=4;spacingRight=4;overflow=hidden;points=[[0,0.5],[1,0.5]];portConstraint=eastwest;rotatable=0;whiteSpace=wrap;html=1;" vertex="1" parent="F-JVeoXvT4hnvLZcxk8T-47">
          <mxGeometry y="60" width="140" height="30" as="geometry" />
        </mxCell>
        <mxCell id="F-JVeoXvT4hnvLZcxk8T-50" value="description" style="text;strokeColor=none;fillColor=none;align=left;verticalAlign=middle;spacingLeft=4;spacingRight=4;overflow=hidden;points=[[0,0.5],[1,0.5]];portConstraint=eastwest;rotatable=0;whiteSpace=wrap;html=1;" vertex="1" parent="F-JVeoXvT4hnvLZcxk8T-47">
          <mxGeometry y="90" width="140" height="30" as="geometry" />
        </mxCell>
        <mxCell id="F-JVeoXvT4hnvLZcxk8T-52" value="price" style="text;strokeColor=none;fillColor=none;align=left;verticalAlign=middle;spacingLeft=4;spacingRight=4;overflow=hidden;points=[[0,0.5],[1,0.5]];portConstraint=eastwest;rotatable=0;whiteSpace=wrap;html=1;" vertex="1" parent="F-JVeoXvT4hnvLZcxk8T-47">
          <mxGeometry y="120" width="140" height="30" as="geometry" />
        </mxCell>
        <mxCell id="F-JVeoXvT4hnvLZcxk8T-53" value="stock" style="text;strokeColor=none;fillColor=none;align=left;verticalAlign=middle;spacingLeft=4;spacingRight=4;overflow=hidden;points=[[0,0.5],[1,0.5]];portConstraint=eastwest;rotatable=0;whiteSpace=wrap;html=1;" vertex="1" parent="F-JVeoXvT4hnvLZcxk8T-47">
          <mxGeometry y="150" width="140" height="30" as="geometry" />
        </mxCell>
        <mxCell id="F-JVeoXvT4hnvLZcxk8T-54" value="&lt;span style=&quot;font-family: Poppins, &amp;quot;JetBrains Mono&amp;quot;, Consolas, &amp;quot;Courier New&amp;quot;, monospace; font-size: 13px; white-space: pre;&quot;&gt;createdAt&lt;/span&gt;" style="text;strokeColor=none;fillColor=none;align=left;verticalAlign=middle;spacingLeft=4;spacingRight=4;overflow=hidden;points=[[0,0.5],[1,0.5]];portConstraint=eastwest;rotatable=0;whiteSpace=wrap;html=1;" vertex="1" parent="F-JVeoXvT4hnvLZcxk8T-47">
          <mxGeometry y="180" width="140" height="30" as="geometry" />
        </mxCell>
        <mxCell id="F-JVeoXvT4hnvLZcxk8T-55" value="&lt;span style=&quot;font-family: Poppins, &amp;quot;JetBrains Mono&amp;quot;, Consolas, &amp;quot;Courier New&amp;quot;, monospace; font-size: 13px; white-space: pre;&quot;&gt;updatedAt&lt;/span&gt;" style="text;strokeColor=none;fillColor=none;align=left;verticalAlign=middle;spacingLeft=4;spacingRight=4;overflow=hidden;points=[[0,0.5],[1,0.5]];portConstraint=eastwest;rotatable=0;whiteSpace=wrap;html=1;" vertex="1" parent="F-JVeoXvT4hnvLZcxk8T-47">
          <mxGeometry y="210" width="140" height="30" as="geometry" />
        </mxCell>
        <mxCell id="F-JVeoXvT4hnvLZcxk8T-56" value="&lt;span style=&quot;font-family: Poppins, &amp;quot;JetBrains Mono&amp;quot;, Consolas, &amp;quot;Courier New&amp;quot;, monospace; font-size: 13px; white-space: pre;&quot;&gt;empresaId&lt;/span&gt;" style="text;strokeColor=none;fillColor=none;align=left;verticalAlign=middle;spacingLeft=4;spacingRight=4;overflow=hidden;points=[[0,0.5],[1,0.5]];portConstraint=eastwest;rotatable=0;whiteSpace=wrap;html=1;" vertex="1" parent="F-JVeoXvT4hnvLZcxk8T-47">
          <mxGeometry y="240" width="140" height="30" as="geometry" />
        </mxCell>
        <mxCell id="F-JVeoXvT4hnvLZcxk8T-51" value="" style="edgeStyle=orthogonalEdgeStyle;rounded=0;orthogonalLoop=1;jettySize=auto;html=1;" edge="1" parent="1" source="F-JVeoXvT4hnvLZcxk8T-48" target="F-JVeoXvT4hnvLZcxk8T-31">
          <mxGeometry relative="1" as="geometry" />
        </mxCell>
        <mxCell id="F-JVeoXvT4hnvLZcxk8T-58" value="Funcionario" style="swimlane;fontStyle=0;childLayout=stackLayout;horizontal=1;startSize=30;horizontalStack=0;resizeParent=1;resizeParentMax=0;resizeLast=0;collapsible=1;marginBottom=0;whiteSpace=wrap;html=1;" vertex="1" parent="1">
          <mxGeometry x="100" y="350" width="140" height="300" as="geometry" />
        </mxCell>
        <mxCell id="F-JVeoXvT4hnvLZcxk8T-59" value="id" style="text;strokeColor=none;fillColor=none;align=left;verticalAlign=middle;spacingLeft=4;spacingRight=4;overflow=hidden;points=[[0,0.5],[1,0.5]];portConstraint=eastwest;rotatable=0;whiteSpace=wrap;html=1;" vertex="1" parent="F-JVeoXvT4hnvLZcxk8T-58">
          <mxGeometry y="30" width="140" height="30" as="geometry" />
        </mxCell>
        <mxCell id="F-JVeoXvT4hnvLZcxk8T-60" value="name" style="text;strokeColor=none;fillColor=none;align=left;verticalAlign=middle;spacingLeft=4;spacingRight=4;overflow=hidden;points=[[0,0.5],[1,0.5]];portConstraint=eastwest;rotatable=0;whiteSpace=wrap;html=1;" vertex="1" parent="F-JVeoXvT4hnvLZcxk8T-58">
          <mxGeometry y="60" width="140" height="30" as="geometry" />
        </mxCell>
        <mxCell id="F-JVeoXvT4hnvLZcxk8T-61" value="cpf" style="text;strokeColor=none;fillColor=none;align=left;verticalAlign=middle;spacingLeft=4;spacingRight=4;overflow=hidden;points=[[0,0.5],[1,0.5]];portConstraint=eastwest;rotatable=0;whiteSpace=wrap;html=1;" vertex="1" parent="F-JVeoXvT4hnvLZcxk8T-58">
          <mxGeometry y="90" width="140" height="30" as="geometry" />
        </mxCell>
        <mxCell id="F-JVeoXvT4hnvLZcxk8T-62" value="telefone" style="text;strokeColor=none;fillColor=none;align=left;verticalAlign=middle;spacingLeft=4;spacingRight=4;overflow=hidden;points=[[0,0.5],[1,0.5]];portConstraint=eastwest;rotatable=0;whiteSpace=wrap;html=1;" vertex="1" parent="F-JVeoXvT4hnvLZcxk8T-58">
          <mxGeometry y="120" width="140" height="30" as="geometry" />
        </mxCell>
        <mxCell id="F-JVeoXvT4hnvLZcxk8T-63" value="email" style="text;strokeColor=none;fillColor=none;align=left;verticalAlign=middle;spacingLeft=4;spacingRight=4;overflow=hidden;points=[[0,0.5],[1,0.5]];portConstraint=eastwest;rotatable=0;whiteSpace=wrap;html=1;" vertex="1" parent="F-JVeoXvT4hnvLZcxk8T-58">
          <mxGeometry y="150" width="140" height="30" as="geometry" />
        </mxCell>
        <mxCell id="F-JVeoXvT4hnvLZcxk8T-64" value="cargo" style="text;strokeColor=none;fillColor=none;align=left;verticalAlign=middle;spacingLeft=4;spacingRight=4;overflow=hidden;points=[[0,0.5],[1,0.5]];portConstraint=eastwest;rotatable=0;whiteSpace=wrap;html=1;" vertex="1" parent="F-JVeoXvT4hnvLZcxk8T-58">
          <mxGeometry y="180" width="140" height="30" as="geometry" />
        </mxCell>
        <mxCell id="F-JVeoXvT4hnvLZcxk8T-67" value="empresaId" style="text;strokeColor=none;fillColor=none;align=left;verticalAlign=middle;spacingLeft=4;spacingRight=4;overflow=hidden;points=[[0,0.5],[1,0.5]];portConstraint=eastwest;rotatable=0;whiteSpace=wrap;html=1;" vertex="1" parent="F-JVeoXvT4hnvLZcxk8T-58">
          <mxGeometry y="210" width="140" height="30" as="geometry" />
        </mxCell>
        <mxCell id="F-JVeoXvT4hnvLZcxk8T-65" value="createdAt" style="text;strokeColor=none;fillColor=none;align=left;verticalAlign=middle;spacingLeft=4;spacingRight=4;overflow=hidden;points=[[0,0.5],[1,0.5]];portConstraint=eastwest;rotatable=0;whiteSpace=wrap;html=1;" vertex="1" parent="F-JVeoXvT4hnvLZcxk8T-58">
          <mxGeometry y="240" width="140" height="30" as="geometry" />
        </mxCell>
        <mxCell id="F-JVeoXvT4hnvLZcxk8T-66" value="updatedAt" style="text;strokeColor=none;fillColor=none;align=left;verticalAlign=middle;spacingLeft=4;spacingRight=4;overflow=hidden;points=[[0,0.5],[1,0.5]];portConstraint=eastwest;rotatable=0;whiteSpace=wrap;html=1;" vertex="1" parent="F-JVeoXvT4hnvLZcxk8T-58">
          <mxGeometry y="270" width="140" height="30" as="geometry" />
        </mxCell>
        <mxCell id="F-JVeoXvT4hnvLZcxk8T-68" style="edgeStyle=orthogonalEdgeStyle;rounded=0;orthogonalLoop=1;jettySize=auto;html=1;entryX=0;entryY=0.5;entryDx=0;entryDy=0;" edge="1" parent="1" source="F-JVeoXvT4hnvLZcxk8T-67" target="F-JVeoXvT4hnvLZcxk8T-10">
          <mxGeometry relative="1" as="geometry" />
        </mxCell>
        <mxCell id="F-JVeoXvT4hnvLZcxk8T-69" style="edgeStyle=orthogonalEdgeStyle;rounded=0;orthogonalLoop=1;jettySize=auto;html=1;entryX=1;entryY=0.5;entryDx=0;entryDy=0;" edge="1" parent="1" source="F-JVeoXvT4hnvLZcxk8T-30" target="F-JVeoXvT4hnvLZcxk8T-38">
          <mxGeometry relative="1" as="geometry" />
        </mxCell>
        <mxCell id="F-JVeoXvT4hnvLZcxk8T-72" style="edgeStyle=orthogonalEdgeStyle;rounded=0;orthogonalLoop=1;jettySize=auto;html=1;entryX=1;entryY=0.5;entryDx=0;entryDy=0;" edge="1" parent="1" source="F-JVeoXvT4hnvLZcxk8T-56" target="F-JVeoXvT4hnvLZcxk8T-10">
          <mxGeometry relative="1" as="geometry">
            <Array as="points">
              <mxPoint x="480" y="605" />
              <mxPoint x="480" y="215" />
            </Array>
          </mxGeometry>
        </mxCell>
      </root>
    </mxGraphModel>
  </diagram>
</mxfile>
